<svg xmlns="http://www.w3.org/2000/svg" width="108" height="35" viewBox="0 0 108 35"><defs><style>.a{fill:#fff;}</style></defs><path class="a" d="M44.55,22.3828h-2.87V12.9072h2.87Z"/><path class="a" d="M50.9854,22.3828H48.1162V15.4077h-2.543V12.9072h7.941v2.5005H50.9854Z"/><path class="a" d="M57.6055,20.0107H54.1963V17.8794h3.4092Z"/><path class="a" d="M63.5,22.5537a5.2809,5.2809,0,0,1-3.7285-1.3711,4.5862,4.5862,0,0,1-1.4844-3.53,4.5946,4.5946,0,0,1,1.4766-3.5376A5.2939,5.2939,0,0,1,63.5,12.751a4.4129,4.4129,0,0,1,2.748.7959,4.9186,4.9186,0,0,1,1.5567,1.96l-2.4727,1.15a2.0346,2.0346,0,0,0-.6953-.9731A1.79,1.79,0,0,0,63.5,15.28a2.1741,2.1741,0,0,0-1.6621.6821,2.5564,2.5564,0,0,0,0,3.3809,2.1755,2.1755,0,0,0,1.6621.6816,1.7924,1.7924,0,0,0,1.1367-.4043,2.0359,2.0359,0,0,0,.6953-.9736l2.4727,1.1367a4.6839,4.6839,0,0,1-.5684.9727,5.4411,5.4411,0,0,1-.8515.874,3.8623,3.8623,0,0,1-1.2578.6748A5.1117,5.1117,0,0,1,63.5,22.5537Z"/><path class="a" d="M71.9951,22.5537a3.93,3.93,0,0,1-2.7344-.98,3.3638,3.3638,0,0,1-1.0869-2.6279,3.45,3.45,0,0,1,1.0518-2.5576A3.6633,3.6633,0,0,1,71.91,15.3506a3.4049,3.4049,0,0,1,2.5576,1.0444,3.89,3.89,0,0,1,1.0078,2.82V19.74H70.8164a1.1718,1.1718,0,0,0,.4971.6114,1.7394,1.7394,0,0,0,.98.2558,3.1958,3.1958,0,0,0,.8311-.1426,2.0755,2.0755,0,0,0,.7461-.3408l1.0508,1.5772a3.3022,3.3022,0,0,1-1.293.6318A6.2069,6.2069,0,0,1,71.9951,22.5537Zm1.0518-4.4326a1.0322,1.0322,0,0,0-1.1367-.8242,1.047,1.047,0,0,0-1.1221.8242Z"/><path class="a" d="M83.56,22.3828H81.002V18.59a.8727.8727,0,0,0-.9942-.98,1.44,1.44,0,0,0-1.0937.54v4.2334H76.3564V15.5215h2.5577v.7812a2.9775,2.9775,0,0,1,2.3584-.9521,2.26,2.26,0,0,1,1.7119.604A2.1669,2.1669,0,0,1,83.56,17.51Z"/><path class="a" d="M87.8633,22.5537a2.53,2.53,0,0,1-1.7539-.5469,2.0676,2.0676,0,0,1-.6035-1.6132V17.7373H84.3691V15.5215h1.1368V13.646h2.5566v1.8755h1.3926v2.2158H88.0625v1.918a.6754.6754,0,0,0,.1563.4541.5112.5112,0,0,0,.4121.1855.7437.7437,0,0,0,.5117-.1279l.4541,1.9316A2.6068,2.6068,0,0,1,87.8633,22.5537Z"/><path class="a" d="M93.7578,22.5537a3.9293,3.9293,0,0,1-2.7344-.98,3.3638,3.3638,0,0,1-1.0869-2.6279,3.45,3.45,0,0,1,1.0518-2.5576,3.6633,3.6633,0,0,1,2.6846-1.0371,3.4049,3.4049,0,0,1,2.5576,1.0444,3.89,3.89,0,0,1,1.0078,2.82V19.74H92.5791a1.1718,1.1718,0,0,0,.4971.6114,1.7394,1.7394,0,0,0,.98.2558,3.1958,3.1958,0,0,0,.8311-.1426,2.0755,2.0755,0,0,0,.7461-.3408l1.0508,1.5772a3.3022,3.3022,0,0,1-1.293.6318A6.2069,6.2069,0,0,1,93.7578,22.5537ZM94.81,18.1211a1.0322,1.0322,0,0,0-1.1367-.8242,1.0469,1.0469,0,0,0-1.1221.8242Z"/><path class="a" d="M100.6777,22.3828H98.12V15.5215h2.5576v.7529a3.0752,3.0752,0,0,1,2.1026-.9521v2.4433a1.9321,1.9321,0,0,0-.583-.0708,1.906,1.906,0,0,0-1.52.4829Z"/><path class="a" d="M8.4256,26.0758A10.5907,10.5907,0,1,1,22.1169,9.9991a1.1124,1.1124,0,0,1-1.5706,1.5758,8.3647,8.3647,0,1,0,.0216,11.8293,1.1125,1.1125,0,0,1,1.5762,1.57A10.5962,10.5962,0,0,1,8.4256,26.0758Z"/><path class="a" d="M11.0071,22.4938a6.3177,6.3177,0,0,1-.7275-.6209,6.1284,6.1284,0,1,1,8.65-8.684,1.1306,1.1306,0,0,1-1.5958,1.602,3.8673,3.8673,0,1,0,.01,5.47,1.1309,1.1309,0,0,1,1.602,1.5966,6.1322,6.1322,0,0,1-7.9381.6364Z"/><path class="a" d="M29.3675,27.41V24.0946H26.8419l-1.403-1.38-.0048-4.513h2.0372a.57.57,0,0,0,.4039-.168l3.2677-3.26h2.4232V15.89h3.3145V12.5749H33.5661V13.63h-2.66a.5714.5714,0,0,0-.4047.1672l-3.2674,3.26H23.2826l2.9351-2.9411a.5736.5736,0,0,0,.1666-.4066l-.0189-2.389h1.0617V8.0048H24.1124V11.32h1.1093l.0178,2.157-3.5725,3.58H16.0217a1.6531,1.6531,0,1,0,0,1.1445H24.29l.0054,4.7536a.5737.5737,0,0,0,.1695.4046l1.5881,1.5635V27.41Z"/></svg>